<svg width="72" height="61" viewBox="0 0 72 61" fill="none" xmlns="http://www.w3.org/2000/svg">
<g clip-path="url(#clip0_69_453)">
<path d="M58.7649 56.0998C57.6932 56.0998 56.7045 56.0998 55.7158 56.0998C38.5006 56.1016 21.2873 56.098 4.07206 56.1163C2.66482 56.1163 1.49574 55.7408 0.656806 54.5446C0.218398 53.9199 -0.00531653 53.2293 9.59136e-05 52.4526C0.00911666 50.8406 9.59136e-05 49.2268 0.00190006 47.6148C0.00550836 45.5906 1.49574 44.0024 3.49834 43.9273C4.52851 43.8888 5.56229 43.9163 6.59607 43.9126C6.78911 43.9126 6.98215 43.9126 7.28525 43.9126C7.14994 43.6379 7.07236 43.462 6.97855 43.2935C4.17309 38.2944 3.0906 32.929 3.81587 27.2301C4.64217 20.7473 7.53783 15.3562 12.391 11.0587C14.6263 9.07852 17.1558 7.58924 19.9197 6.5048C20.1506 6.41504 20.3762 6.26117 20.5512 6.08348C22.2651 4.3469 23.9772 2.60483 25.6731 0.849934C26.4706 0.0237778 27.4087 -0.210697 28.4461 0.192306C29.5052 0.604469 29.9796 1.47642 29.9796 2.61765C29.9796 3.35771 29.9796 4.09777 29.9796 4.83234C39.4063 5.71345 46.6121 10.1007 51.0178 18.5546C55.4127 26.9902 54.9184 35.4862 50.3539 43.8558H58.7685C58.7685 43.1085 58.745 42.3281 58.7739 41.5514C58.8316 39.9888 60.0765 38.8201 61.527 39.0821C62.1079 39.1883 62.7304 39.5455 63.158 39.9724C65.5124 42.3134 67.8127 44.7113 70.131 47.089C70.4521 47.4188 70.7751 47.7467 71.0944 48.0782C72.2942 49.322 72.3068 50.7289 71.1052 51.9654C68.8879 54.246 66.658 56.5156 64.4335 58.7908C63.9716 59.2634 63.5134 59.7378 63.0461 60.2049C62.2396 61.011 61.2834 61.2161 60.2551 60.7746C59.2357 60.3387 58.7865 59.4667 58.7667 58.3658C58.754 57.6422 58.7649 56.9168 58.7649 56.1016V56.0998ZM29.9869 17.1752C29.9869 17.9373 29.9905 18.6169 29.9869 19.2946C29.9778 20.5073 29.4456 21.3884 28.4353 21.7731C27.3708 22.1798 26.4489 21.8922 25.6641 21.0862C24.9244 20.326 24.1703 19.5786 23.4522 18.8001C23.1726 18.496 22.9525 18.4593 22.5862 18.659C17.1612 21.6156 14.4369 27.9739 16.0426 33.9695C18.2617 42.2475 27.4087 46.4113 34.7733 42.4032C39.5741 39.791 42.0476 35.5888 41.8852 30.0603C41.7283 24.7114 39.0762 20.8132 34.389 18.3732C33.0575 17.679 31.6232 17.287 29.9887 17.1734L29.9869 17.1752ZM27.3582 19.3679C27.4502 19.2489 27.4935 19.2195 27.4935 19.1902C27.5188 18.223 27.5314 17.2558 27.5621 16.2904C27.6036 14.9807 28.0582 14.563 29.3428 14.629C37.2071 15.0411 43.3159 20.8206 44.2793 28.778C44.328 29.1737 44.4652 29.28 44.8314 29.2781C46.8557 29.2653 48.8817 29.258 50.906 29.2818C51.3877 29.2873 51.5212 29.1389 51.4815 28.6571C51.283 26.1878 50.7869 23.7753 49.7676 21.5313C45.6902 12.5572 38.7857 7.78342 29.0307 7.33096C28.0312 7.28516 27.5928 6.86017 27.5819 5.82885C27.5711 4.9624 27.5819 4.09594 27.5765 3.22948C27.5765 3.04813 27.5495 2.86861 27.5242 2.58102C24.7368 5.46615 22.0504 8.25053 19.3334 11.0624C21.9746 13.7973 24.661 16.578 27.3564 19.3716L27.3582 19.3679ZM30.032 53.6122C42.6376 52.9802 51.2975 42.0845 51.4436 31.8116C51.3949 31.7896 51.3426 31.7456 51.2885 31.7456C49.0856 31.7383 46.8827 31.7273 44.6799 31.7511C44.5463 31.7511 44.3389 32.024 44.2974 32.2017C44.1007 33.0627 44.0322 33.9621 43.7688 34.7993C41.6994 41.3572 37.2991 45.1766 30.5895 46.2152C30.1059 46.2904 29.9688 46.457 29.9742 46.9333C29.9959 48.9685 29.9833 51.0037 29.9851 53.0388C29.9851 53.2147 30.0121 53.3905 30.032 53.6085V53.6122ZM61.1788 41.5954C61.1788 42.7494 61.1896 43.7514 61.1752 44.7534C61.1572 45.9899 60.7584 46.3764 59.5569 46.3746C56.0821 46.371 52.6073 46.3783 49.1343 46.36C48.7175 46.3581 48.4469 46.4845 48.1817 46.8161C46.0239 49.5089 43.4188 51.6521 40.3824 53.2513C40.2056 53.3447 40.0396 53.4565 39.7275 53.6433C40.0324 53.6561 40.1478 53.6671 40.2651 53.6671C46.659 53.6671 53.0511 53.6671 59.445 53.6635C60.818 53.6635 61.1716 54.0152 61.1698 55.4055C61.1698 56.3618 61.1698 57.318 61.1698 58.4501C63.9897 55.488 66.6815 52.6596 69.3985 49.8056C66.815 47.2264 64.0763 44.4897 61.177 41.5954H61.1788ZM27.535 53.6671V46.3728C26.6402 46.3728 25.7904 46.3728 24.9407 46.3728C17.9135 46.3728 10.8845 46.3728 3.85737 46.3764C2.80374 46.3764 2.39601 46.8124 2.39781 47.8969C2.39961 49.3074 2.39781 50.7197 2.39961 52.1302C2.40142 53.2458 2.80916 53.6616 3.90788 53.6635C9.80384 53.6671 15.7016 53.6671 21.5976 53.6671C23.5587 53.6671 25.5216 53.6671 27.5368 53.6671H27.535ZM6.14142 29.2708C6.38679 29.2708 6.60509 29.2708 6.82159 29.2708C8.74842 29.2708 10.6752 29.2507 12.6003 29.2836C13.1217 29.2928 13.275 29.1114 13.3328 28.6168C13.7892 24.6711 15.4743 21.3518 18.3934 18.7103C19.2594 17.9263 20.2372 17.2705 21.2692 16.4736C20.295 15.5192 19.3045 14.5594 18.3284 13.5867C17.5797 12.8411 16.7498 12.1413 16.813 10.9104C11.7956 12.7001 5.40894 23.6965 6.14322 29.2726L6.14142 29.2708ZM20.3365 43.854C20.1939 43.7295 20.129 43.6653 20.0568 43.6122C16.1869 40.8315 13.8975 37.0836 13.3364 32.2823C13.2859 31.8537 13.1163 31.7163 12.6905 31.72C10.6265 31.7401 8.56259 31.7291 6.49864 31.7328C6.36694 31.7328 6.23704 31.7713 6.0891 31.7951C6.0891 32.0076 6.07647 32.1871 6.0909 32.3648C6.42287 36.3582 7.66232 40.0292 9.85616 43.3686C10.1142 43.7606 10.3902 43.9346 10.8647 43.931C13.8614 43.909 16.8581 43.9163 19.8566 43.9108C19.9847 43.9108 20.1128 43.8815 20.3401 43.854H20.3365Z" fill="#3E3B3B"/>
</g>
<defs>
<clipPath id="clip0_69_453">
<rect width="72" height="61" fill="white"/>
</clipPath>
</defs>
</svg>
