<svg width="67" height="64" viewBox="0 0 67 64" fill="none" xmlns="http://www.w3.org/2000/svg">
<g filter="url(#filter0_d_31_878)">
<rect x="1" y="1.63477" width="64.2003" height="60.73" rx="4" fill="#F0EAFF"/>
<rect x="1.25" y="1.88477" width="63.7003" height="60.23" rx="3.75"  stroke-width="0.5"/>
</g>
<path d="M51.6083 28.3653V44.5959C51.6083 46.5753 49.9888 48.1947 48.0094 48.1947H19.2189C17.2396 48.1947 15.6201 46.5753 15.6201 44.5959L15.6381 23.003C15.6381 21.0237 17.2396 19.4042 19.2189 19.4042H37.3929C37.285 19.98 37.213 20.5918 37.213 21.2036C37.213 21.8154 37.285 22.4272 37.3929 23.003H19.2189L33.6142 32.0001L40.218 27.8794C41.0637 28.6532 42.0534 29.247 43.151 29.6429L33.6142 35.5989L19.2189 26.6019V44.5959H48.0094V30.0207C49.341 29.7508 50.5646 29.157 51.6083 28.3653ZM40.8118 21.2036C40.8118 24.1907 43.223 26.6019 46.21 26.6019C49.1971 26.6019 51.6083 24.1907 51.6083 21.2036C51.6083 18.2166 49.1971 15.8054 46.21 15.8054C43.223 15.8054 40.8118 18.2166 40.8118 21.2036Z" fill="#3E3B3B"/>
<defs>
<filter id="filter0_d_31_878" x="0" y="0.634766" width="66.2002" height="62.73" filterUnits="userSpaceOnUse" color-interpolation-filters="sRGB">
<feFlood flood-opacity="0" result="BackgroundImageFix"/>
<feColorMatrix in="SourceAlpha" type="matrix" values="0 0 0 0 0 0 0 0 0 0 0 0 0 0 0 0 0 0 127 0" result="hardAlpha"/>
<feOffset/>
<feGaussianBlur stdDeviation="0.5"/>
<feComposite in2="hardAlpha" operator="out"/>
<feColorMatrix type="matrix" values="0 0 0 0 0 0 0 0 0 0 0 0 0 0 0 0 0 0 0.25 0"/>
<feBlend mode="normal" in2="BackgroundImageFix" result="effect1_dropShadow_31_878"/>
<feBlend mode="normal" in="SourceGraphic" in2="effect1_dropShadow_31_878" result="shape"/>
</filter>
<linearGradient id="paint0_linear_31_878" x1="59.9948" y1="1.63476" x2="32.2326" y2="37.2052" gradientUnits="userSpaceOnUse">
<stop stop-color="#0675EB"/>
<stop offset="1" stop-color="white" stop-opacity="0"/>
</linearGradient>
</defs>
</svg>
