<svg width="67" height="67" viewBox="0 0 67 67" fill="#3E3B3B" xmlns="http://www.w3.org/2000/svg">
<g clip-path="url(#clip0_69_429)">
<path d="M36.4152 10.0631H43.774C43.774 8.87432 43.7877 7.72011 43.774 6.56589C43.7671 6.06135 43.8497 5.75033 44.4692 5.75033C49.9212 5.76415 55.3732 5.75724 60.8251 5.76415C60.9215 5.76415 61.011 5.81945 61.1693 5.87474V16.629H53.6729C53.6729 17.099 53.6729 17.4584 53.6729 17.8109C53.6729 20.7828 53.6798 23.7479 53.6729 26.7198C53.666 28.814 52.3994 30.0926 50.3342 30.1133C48.8749 30.1272 47.4155 30.1133 45.8667 30.1133V27.9431C47.092 27.9431 48.3379 27.9431 49.5839 27.9431C51.4701 27.9431 51.5251 27.8878 51.5251 25.9595C51.5251 23.2571 51.5251 20.5547 51.5251 17.8524V16.6843H43.8359V12.3232H34.529V18.0804H32.3951V10.7819C30.7292 10.2774 29.2905 9.44107 28.6847 7.82378C28.2923 6.77323 28.1065 5.5499 28.1959 4.43715C28.3612 2.34988 30.3919 0.41466 32.4433 0.0759967C34.8388 -0.317958 37.1862 0.822438 38.2325 2.88206C39.4647 5.308 38.9484 7.48512 36.4359 10.0562L36.4152 10.0631ZM59.0216 7.91363C58.5673 7.91363 58.2093 7.91363 57.8513 7.91363C55.3938 7.91363 52.9294 7.89289 50.4719 7.91363C48.9919 7.92745 47.505 8.01039 46.025 8.05877C45.9906 9.51709 45.9424 10.9754 45.9148 12.4407C45.9011 13.0903 45.9148 13.7469 45.9148 14.3759H59.0285V7.91363H59.0216ZM33.5447 2.184C31.7411 2.11489 30.2817 3.46263 30.2129 5.27344C30.1441 7.07734 31.5071 8.59095 33.2693 8.66698C35.0591 8.74992 36.6148 7.2985 36.6768 5.49461C36.7387 3.73218 35.3344 2.24621 33.5447 2.17709V2.184Z" fill="#3E3B3B"/>
<path d="M61.1487 61.1943H43.7878V56.9299H40.9517V54.7597H43.7534V50.4193H51.36C51.415 50.1843 51.477 50.0323 51.477 49.8802C51.4839 46.6802 51.477 43.4733 51.4976 40.2732C51.4976 39.43 51.0984 39.0568 50.2723 39.0637C48.813 39.0706 47.3605 39.0637 45.8185 39.0637V36.9626C47.6565 36.9626 49.4807 36.8244 51.2705 37.0041C52.6748 37.1423 53.6316 38.5523 53.6385 40.059C53.6591 43.0586 53.6454 46.0651 53.6454 49.0647C53.6454 49.9447 54.0997 50.3848 55.0084 50.3848C57.0253 50.3848 59.0492 50.3848 61.135 50.3848V61.1874L61.1487 61.1943ZM45.908 52.6033C45.908 54.5247 45.9493 56.3217 45.8873 58.1187C45.8598 58.9412 46.1558 59.1278 46.9199 59.1209C50.6096 59.0863 54.2993 59.1071 57.9891 59.1071C58.3126 59.1071 58.6361 59.0725 58.9666 59.0518V52.6033H45.908Z" fill="#3E3B3B"/>
<path d="M15.4816 50.3986H23.0745V54.739H25.8831V56.9161H23.1158V61.1943C22.7096 61.222 22.393 61.2703 22.0694 61.2703C16.9548 61.2703 11.8332 61.2496 6.71856 61.2842C5.85809 61.2842 5.57585 61.0768 5.5965 60.1783C5.65846 57.2755 5.64469 54.3727 5.5965 51.4698C5.58274 50.6681 5.78237 50.3502 6.64284 50.3778C8.5703 50.44 10.4978 50.3709 12.4252 50.4124C13.1411 50.4262 13.327 50.1705 13.3201 49.4932C13.2926 46.459 13.3064 43.418 13.3201 40.3838C13.3201 38.1721 14.5661 36.9281 16.7758 36.9142C18.1044 36.9073 19.4329 36.9142 20.7615 36.9212C20.8579 36.9212 20.9474 36.9626 21.03 36.9834C21.0782 37.0525 21.1401 37.1078 21.1401 37.1631C21.264 38.4394 20.6881 39.0775 19.4123 39.0775C18.483 39.0775 17.5537 39.0775 16.6175 39.0775C15.9635 39.0775 15.4816 39.3471 15.4816 40.0521C15.461 43.4525 15.4748 46.8461 15.4748 50.3986H15.4816ZM20.9061 52.6241H7.77867C7.77867 54.4902 7.81997 56.2802 7.75802 58.0772C7.73048 58.9481 8.05402 59.1347 8.85254 59.1278C12.5423 59.0932 16.232 59.1139 19.9286 59.107C20.2452 59.107 20.5619 59.0656 20.9061 59.0448V52.6241Z" fill="#3E3B3B"/>
<path d="M21.1953 30.0928C19.3573 30.0928 17.6914 30.1619 16.0393 30.072C14.4905 29.9891 13.3202 28.5722 13.3133 26.9066C13.2996 23.9001 13.3133 20.9005 13.3133 17.894C13.3133 17.5346 13.3133 17.1683 13.3133 16.6914H5.71362V5.84033H23.0814V10.0702H25.8694V12.2404H23.1296V16.6153H15.4611C15.4611 17.4586 15.4611 18.1773 15.4611 18.9031C15.4611 21.3705 15.4611 23.8448 15.4611 26.3122C15.4611 27.7567 15.6538 27.9433 17.065 27.9433C18.0976 27.9433 19.1301 27.9986 20.1558 27.9225C21.0094 27.8603 21.2985 28.1852 21.2022 29.0007C21.1609 29.3256 21.2022 29.6504 21.2022 30.0858L21.1953 30.0928ZM7.78565 14.3829H20.8855V8.08657C20.8029 8.02436 20.7823 7.98981 20.7547 7.98981C16.6107 7.96216 12.4735 7.93451 8.32947 7.94143C8.15049 7.94143 7.81318 8.28009 7.81318 8.47361C7.77188 10.4296 7.79253 12.3855 7.79253 14.3898L7.78565 14.3829Z" fill="#3E3B3B"/>
<path d="M33.4209 47.3713C30.0065 43.1898 26.8469 39.0222 24.5339 34.2395C21.7253 28.42 25.2636 22.7871 29.6004 21.0247C34.8871 18.8752 40.7521 21.4325 42.7484 26.782C43.6571 29.2148 43.4919 31.6062 42.4318 33.963C40.4906 38.2896 37.6751 42.0356 34.7839 45.7333C34.3777 46.2516 33.9372 46.7493 33.4209 47.3713ZM33.3314 43.8602C33.476 43.7911 33.5517 43.7842 33.593 43.7358C36.3052 40.3147 38.9004 36.8036 40.5869 32.7258C40.9931 31.7444 41.2409 30.5694 41.1376 29.5327C40.6764 25.0264 37.2207 22.1927 32.7119 22.4623C27.9139 22.7456 24.4788 27.8118 26.1447 32.325C27.7418 36.6654 30.5917 40.2455 33.3383 43.8602H33.3314Z" fill="#3E3B3B"/>
<path d="M21.1471 32.4494V34.5229C20.7203 34.5436 20.3348 34.5712 19.9493 34.5712C17.2302 34.5712 14.5042 34.592 11.7851 34.5574C11.0761 34.5505 10.6906 34.6818 10.4084 35.449C9.50658 37.9164 6.92515 39.3264 4.41945 38.8425C1.85868 38.3587 -0.0274817 36.0365 5.34647e-05 33.4239C0.0275887 30.8598 1.94128 28.6135 4.46764 28.1574C7.01464 27.7012 9.60983 29.1803 10.4634 31.6892C10.6906 32.3665 11.0348 32.4494 11.6199 32.4494C14.4078 32.4356 17.1958 32.4494 19.9837 32.4494C20.3417 32.4494 20.6996 32.4494 21.1402 32.4494H21.1471ZM5.4176 36.7415C7.23492 36.7415 8.62545 35.3315 8.61168 33.4931C8.6048 31.6546 7.20739 30.2654 5.38318 30.2792C3.57274 30.293 2.1478 31.7237 2.16157 33.5276C2.16845 35.3246 3.60716 36.7415 5.4176 36.7415Z" fill="#3E3B3B"/>
<path d="M61.5136 38.9116C59.2901 38.9047 57.3833 37.5915 56.5573 35.4006C56.3095 34.7509 55.9997 34.5574 55.3319 34.5643C52.4752 34.5988 49.6184 34.5435 46.7685 34.5988C45.8461 34.6196 45.7841 34.1911 45.7635 33.4584C45.7428 32.6843 45.97 32.4217 46.7685 32.4286C49.6253 32.4701 52.4752 32.4286 55.3319 32.4563C55.9653 32.4563 56.2957 32.3319 56.5366 31.6407C57.459 29.0282 60.247 27.5837 62.8628 28.261C65.5131 28.9383 67.2891 31.4748 66.9587 34.0943C66.6076 36.9073 64.3222 38.9254 61.5136 38.9185V38.9116ZM58.3815 33.4239C58.3539 35.2831 59.7032 36.7137 61.4998 36.7414C63.324 36.7621 64.7765 35.3937 64.8247 33.5967C64.8729 31.7997 63.4479 30.2999 61.6788 30.2722C59.834 30.2515 58.409 31.6131 58.3815 33.417V33.4239Z" fill="#3E3B3B"/>
<path d="M32.34 48.9265H34.4947C34.4947 50.9654 34.536 52.9559 34.474 54.9464C34.4465 55.8518 34.6254 56.3287 35.5754 56.695C37.8952 57.5935 39.2307 60.2061 38.7488 62.5214C38.1844 65.2445 36.1123 66.9862 33.4208 67.0001C30.9082 67.0139 28.6847 65.2445 28.1547 62.8117C27.5971 60.2544 28.8637 57.635 31.3006 56.6812C32.2161 56.3218 32.3744 55.8587 32.3538 55.0086C32.3056 53.0181 32.34 51.0207 32.34 48.9265ZM33.3795 64.8437C35.2037 64.8437 36.6493 63.4545 36.6837 61.6644C36.7112 59.8743 35.1761 58.3331 33.3864 58.3538C31.6448 58.3745 30.2336 59.7914 30.206 61.5607C30.1785 63.3784 31.5966 64.8437 33.3795 64.8437Z" fill="#3E3B3B"/>
<path d="M49.281 10.1323H51.298V12.2058H49.281V10.1323Z" fill="#3E3B3B"/>
<path d="M55.7725 10.1599V12.185H53.7004V10.1599H55.7725Z" fill="#3E3B3B"/>
<path d="M34.4329 4.375V6.4208H32.3953V4.375H34.4329Z" fill="#3E3B3B"/>
<path d="M51.305 56.8816H49.2881V54.822H51.305V56.8816Z" fill="#3E3B3B"/>
<path d="M53.6799 56.8608V54.8289H55.7588V56.8608H53.6799Z" fill="#3E3B3B"/>
<path d="M17.6157 56.8677H15.6194V54.8149H17.6157V56.8677Z" fill="#3E3B3B"/>
<path d="M11.1379 56.8607V54.8149H13.1618V56.8607H11.1379Z" fill="#3E3B3B"/>
<path d="M15.6194 10.0977C16.2114 10.0977 16.7071 10.0977 17.1958 10.0977C17.3197 10.0977 17.4436 10.1392 17.6226 10.1738V12.1988H15.6125V10.0908L15.6194 10.0977Z" fill="#3E3B3B"/>
<path d="M13.1275 12.2196H11.1519V10.2498C13.1344 9.72452 13.4166 9.98716 13.1275 12.2196Z" fill="#3E3B3B"/>
<path d="M37.4546 30.217C37.4684 32.4148 35.596 34.274 33.3726 34.2602C31.2248 34.2464 29.4419 32.4217 29.4144 30.2031C29.3868 28.0468 31.2317 26.1668 33.3863 26.153C35.5822 26.1323 37.434 27.9845 37.4478 30.2239L37.4546 30.217ZM33.4276 32.0831C34.4051 32.09 35.2587 31.2537 35.2931 30.2584C35.3275 29.2217 34.4808 28.337 33.4414 28.3232C32.4226 28.3094 31.5552 29.2079 31.5759 30.2446C31.5965 31.2399 32.4364 32.0762 33.4345 32.0831H33.4276Z" fill="#3E3B3B"/>
<path d="M4.39868 34.4953V32.5117H6.44317V34.4953H4.39868Z" fill="#3E3B3B"/>
<path d="M60.543 32.5046H62.5806V34.5297H60.543V32.5046Z" fill="#3E3B3B"/>
<path d="M34.4464 60.6277V62.6251H32.4226V60.6277H34.4464Z" fill="#3E3B3B"/>
</g>
<defs>
<clipPath id="clip0_69_429">
<rect width="67" height="67" fill="white"/>
</clipPath>
</defs>
</svg>
