<svg width="67" height="63" viewBox="0 0 67 63" fill="none" xmlns="http://www.w3.org/2000/svg">
<g filter="url(#filter0_d_31_874)">
<rect x="1" y="1" width="64.2003" height="60.73" rx="4" fill="#F0EAFF"/>
<rect x="1.25" y="1.25" width="63.7003" height="60.23" rx="3.75"  stroke-width="0.5"/>
</g>
<path d="M33.6144 36.0884C35.0839 36.0884 36.4091 35.7273 37.59 35.0051C38.7708 34.283 39.7024 33.332 40.3847 32.1522C39.4662 31.3912 38.4297 30.807 37.2751 30.3998C36.1205 29.9925 34.9002 29.7894 33.6144 29.7904C32.3286 29.7904 31.1084 29.9941 29.9537 30.4013C28.7991 30.8086 27.7626 31.3922 26.8441 32.1522C27.5264 33.333 28.458 34.2845 29.6388 35.0067C30.8197 35.7289 32.1449 36.0894 33.6144 36.0884ZM33.6144 28.216C34.4804 28.216 35.222 27.9074 35.8391 27.2902C36.4563 26.673 36.7639 25.9319 36.7618 25.067C36.7618 24.201 36.4532 23.4595 35.836 22.8423C35.2188 22.2251 34.4783 21.917 33.6144 21.918C32.7484 21.918 32.0069 22.2266 31.3897 22.8438C30.7725 23.461 30.4649 24.2021 30.467 25.067C30.467 25.933 30.7756 26.6746 31.3928 27.2917C32.01 27.9089 32.7505 28.217 33.6144 28.216ZM33.6144 42.9374C36.8159 39.9983 39.1907 37.328 40.7389 34.9264C42.2872 32.5248 43.0613 30.393 43.0613 28.5309C43.0613 25.6706 42.1491 23.3288 40.3248 21.5055C38.5005 19.6823 36.2637 18.7701 33.6144 18.7691C30.964 18.7691 28.7267 19.6812 26.9024 21.5055C25.0781 23.3298 24.1665 25.6716 24.1675 28.5309C24.1675 30.394 24.9416 32.5264 26.4899 34.928C28.0381 37.3296 30.413 39.9994 33.6144 42.9374ZM33.6144 47.1097C29.3895 43.5147 26.2343 40.1757 24.1486 37.0929C22.063 34.0101 21.0196 31.156 21.0186 28.5309C21.0186 24.5947 22.285 21.4588 24.8178 19.1233C27.3506 16.7879 30.2823 15.6201 33.6128 15.6201C36.9455 15.6201 39.8782 16.7879 42.411 19.1233C44.9438 21.4588 46.2097 24.5947 46.2087 28.5309C46.2087 31.155 45.1653 34.009 43.0786 37.0929C40.9919 40.1768 37.8372 43.5157 33.6144 47.1097Z" fill="#3E3B3B"/>
<defs>
<filter id="filter0_d_31_874" x="0" y="0" width="66.2002" height="62.73" filterUnits="userSpaceOnUse" color-interpolation-filters="sRGB">
<feFlood flood-opacity="0" result="BackgroundImageFix"/>
<feColorMatrix in="SourceAlpha" type="matrix" values="0 0 0 0 0 0 0 0 0 0 0 0 0 0 0 0 0 0 127 0" result="hardAlpha"/>
<feOffset/>
<feGaussianBlur stdDeviation="0.5"/>
<feComposite in2="hardAlpha" operator="out"/>
<feColorMatrix type="matrix" values="0 0 0 0 0 0 0 0 0 0 0 0 0 0 0 0 0 0 0.25 0"/>
<feBlend mode="normal" in2="BackgroundImageFix" result="effect1_dropShadow_31_874"/>
<feBlend mode="normal" in="SourceGraphic" in2="effect1_dropShadow_31_874" result="shape"/>
</filter>
<linearGradient id="paint0_linear_31_874" x1="59.9948" y1="0.999999" x2="32.2326" y2="36.5704" gradientUnits="userSpaceOnUse">
<stop stop-color="#0675EB"/>
<stop offset="1" stop-color="white" stop-opacity="0"/>
</linearGradient>
</defs>
</svg>
