<svg width="67" height="64" viewBox="0 0 67 64" fill="none" xmlns="http://www.w3.org/2000/svg">
<g filter="url(#filter0_d_31_870)">
<rect x="1" y="1.63477" width="64.2003" height="60.73" rx="4" fill="#F0EAFF"/>
<rect x="1.25" y="1.88477" width="63.7003" height="60.23" rx="3.75"  stroke-width="0.5"/>
</g>
<path d="M44.1107 31.9997C44.1107 29.0757 43.0921 26.595 41.0547 24.5576C39.0174 22.5203 36.5372 21.5022 33.6142 21.5032V18.5042C35.4886 18.5042 37.2445 18.8605 38.8819 19.5733C40.5194 20.2861 41.9439 21.2477 43.1555 22.4583C44.3671 23.6709 45.3293 25.0955 46.0421 26.7319C46.7548 28.3684 47.1107 30.1243 47.1097 31.9997H44.1107ZM38.1127 31.9997C38.1127 30.7501 37.6753 29.688 36.8006 28.8132C35.9259 27.9385 34.8638 27.5012 33.6142 27.5012V24.5022C35.6885 24.5022 37.4569 25.2334 38.9194 26.6959C40.382 28.1585 41.1127 29.9264 41.1117 31.9997H38.1127ZM45.5352 45.4952C42.3113 45.4952 39.1684 44.783 36.1064 43.3584C33.0444 41.9339 30.3328 40.0345 27.9716 37.6603C25.6103 35.2861 23.711 32.568 22.2734 29.506C20.8359 26.444 20.1177 23.3016 20.1187 20.0786V19.2914C20.1187 19.0165 20.1436 18.7541 20.1936 18.5042H28.9657L30.3528 26.0392L26.0792 30.3502C27.1288 32.1496 28.4474 33.8366 30.0349 35.4111C31.6223 36.9855 33.3653 38.3476 35.2636 39.4972L39.6122 35.1486L47.1097 36.6481V45.4202C46.8598 45.4452 46.5974 45.4642 46.3225 45.4772C46.0476 45.4902 45.7852 45.4962 45.5352 45.4952ZM24.6547 27.5012L27.1288 25.027L26.4915 21.5032H23.1551C23.2801 22.5278 23.455 23.54 23.68 24.5397C23.9049 25.5393 24.2298 26.5265 24.6547 27.5012ZM38.0752 40.9217C39.0499 41.3466 40.0436 41.684 41.0562 41.9339C42.0689 42.1838 43.0871 42.3463 44.1107 42.4212V39.1223L40.5869 38.4101L38.0752 40.9217Z" fill="#3E3B3B"/>
<defs>
<filter id="filter0_d_31_870" x="0" y="0.634766" width="66.2002" height="62.73" filterUnits="userSpaceOnUse" color-interpolation-filters="sRGB">
<feFlood flood-opacity="0" result="BackgroundImageFix"/>
<feColorMatrix in="SourceAlpha" type="matrix" values="0 0 0 0 0 0 0 0 0 0 0 0 0 0 0 0 0 0 127 0" result="hardAlpha"/>
<feOffset/>
<feGaussianBlur stdDeviation="0.5"/>
<feComposite in2="hardAlpha" operator="out"/>
<feColorMatrix type="matrix" values="0 0 0 0 0 0 0 0 0 0 0 0 0 0 0 0 0 0 0.25 0"/>
<feBlend mode="normal" in2="BackgroundImageFix" result="effect1_dropShadow_31_870"/>
<feBlend mode="normal" in="SourceGraphic" in2="effect1_dropShadow_31_870" result="shape"/>
</filter>
<linearGradient id="paint0_linear_31_870" x1="59.9948" y1="1.63476" x2="32.2326" y2="37.2052" gradientUnits="userSpaceOnUse">
<stop stop-color="#0675EB"/>
<stop offset="1" stop-color="white" stop-opacity="0"/>
</linearGradient>
</defs>
</svg>
