<svg width="40" height="40" viewBox="0 0 60 56" fill="none" xmlns="http://www.w3.org/2000/svg">
            <g filter="url(#filter0_d_31_299)">
                <rect x="1" y="1" width="57.0857" height="54" rx="4" fill="#F0EAFF" />
                <rect x="1.25" y="1.25" width="56.5857" height="53.5" rx="3.75" 
                    stroke-width="0.5" />
            </g>
            <path
                d="M16.4286 41.7792C15.58 41.7792 14.8534 41.472 14.2486 40.8576C13.6438 40.2432 13.3419 39.5055 13.3429 38.6445V21.4039C13.3429 20.5419 13.6453 19.8037 14.2501 19.1893C14.8549 18.5749 15.5811 18.2683 16.4286 18.2693H22.6V15.1347C22.6 14.2726 22.9024 13.5344 23.5072 12.92C24.112 12.3056 24.8382 11.999 25.6858 12H31.8572C32.7058 12 33.4324 12.3072 34.0372 12.9216C34.642 13.536 34.9439 14.2737 34.9429 15.1347V18.2693H41.1143C41.9629 18.2693 42.6896 18.5765 43.2944 19.1909C43.8992 19.8053 44.2011 20.543 44.2 21.4039V28.1043C43.7372 27.7647 43.2486 27.4705 42.7343 27.2219C42.22 26.9732 41.68 26.7579 41.1143 26.5761V21.4039H16.4286V38.6445H27.3443C27.4215 39.1931 27.5372 39.7286 27.6915 40.251C27.8458 40.7735 28.0386 41.2829 28.27 41.7792H16.4286ZM25.6858 18.2693H31.8572V15.1347H25.6858V18.2693ZM38.0286 44.9138C35.8943 44.9138 34.0748 44.1495 32.57 42.6208C31.0652 41.0922 30.3133 39.2443 30.3143 37.0772C30.3143 34.9091 31.0667 33.0607 32.5715 31.532C34.0763 30.0033 35.8954 29.2395 38.0286 29.2406C40.1629 29.2406 41.9824 30.0049 43.4872 31.5336C44.992 33.0622 45.7439 34.9101 45.7429 37.0772C45.7429 39.2453 44.9905 41.0937 43.4857 42.6224C41.9809 44.1511 40.1619 44.9149 38.0286 44.9138ZM40.5743 40.7604L41.6543 39.6633L38.8 36.7637V32.3752H37.2572V37.3907L40.5743 40.7604Z"
                fill="#FBBB0E" />
            <defs>
                <filter id="filter0_d_31_299" x="0" y="0" width="59.0857" height="56" filterUnits="userSpaceOnUse"
                    color-interpolation-filters="sRGB">
                    <feFlood flood-opacity="0" result="BackgroundImageFix" />
                    <feColorMatrix in="SourceAlpha" type="matrix" values="0 0 0 0 0 0 0 0 0 0 0 0 0 0 0 0 0 0 127 0"
                        result="hardAlpha" />
                    <feOffset />
                    <feGaussianBlur stdDeviation="0.5" />
                    <feComposite in2="hardAlpha" operator="out" />
                    <feColorMatrix type="matrix" values="0 0 0 0 0 0 0 0 0 0 0 0 0 0 0 0 0 0 0.25 0" />
                    <feBlend mode="normal" in2="BackgroundImageFix" result="effect1_dropShadow_31_299" />
                    <feBlend mode="normal" in="SourceGraphic" in2="effect1_dropShadow_31_299" result="shape" />
                </filter>
                <linearGradient id="paint0_linear_31_299" x1="53.4571" y1="0.999999" x2="28.7714" y2="32.6286"
                    gradientUnits="userSpaceOnUse">
                    <stop stop-color="#0675EB" />
                    <stop offset="1" stop-color="white" stop-opacity="0" />
                </linearGradient>
            </defs>
        </svg>