<svg width="65" height="67" viewBox="0 0 65 67" fill="none" xmlns="http://www.w3.org/2000/svg">
<g clip-path="url(#clip0_69_402)">
<path d="M17.8851 24.0031H53.1602C53.1602 23.7025 53.1602 23.4311 53.1602 23.1571C53.1602 16.1953 53.1656 9.23358 53.1683 2.27182C53.1683 0.651751 53.8371 0.00266021 55.4967 0C56.2927 0 57.0887 0 57.882 0C59.3277 0.00798062 60.0723 0.718256 60.0777 2.13349C60.0885 5.94557 60.0885 9.75764 60.0912 13.5724C60.0912 16.746 60.0912 19.9196 60.0912 23.0933C60.0912 23.3726 60.0912 23.6546 60.0912 24.0297C61.3719 24.0297 62.5929 24.0297 63.8113 24.0297C64.7859 24.0297 64.9971 24.2345 64.9971 25.1948C64.9971 38.7406 64.9971 52.2864 64.9971 65.8322C64.9971 66.8298 64.7968 67 63.6623 66.9973C45.8041 66.9894 27.9459 66.9654 10.085 66.9867C7.93801 66.9867 5.89931 66.7632 4.08534 65.5635C1.36166 63.7625 0.0133595 61.2087 0.0106521 57.9979C-0.00288505 49.1181 0.00794468 40.2383 0.00794468 31.3559C0.00794468 26.501 -0.00829991 21.6461 0.0106521 16.7912C0.0296041 12.1572 3.40577 8.51533 8.14107 7.9753C12.4757 7.4805 16.6559 10.4892 17.6658 14.8679C17.8228 15.5542 17.8689 16.2752 17.877 16.9801C17.9014 19.2971 17.8878 21.6115 17.8878 24.0031H17.8851ZM60.0912 25.5407C60.0912 25.9503 60.0912 26.2775 60.0912 26.6074C60.0912 31.723 60.094 36.8386 60.0831 41.9515C60.0831 42.3212 60.029 42.7123 59.8963 43.0555C59.187 44.8884 58.4343 46.7079 57.7195 48.5382C57.5111 49.0729 57.2187 49.4506 56.5824 49.4426C55.9732 49.4373 55.7025 49.0516 55.5076 48.5541C54.8199 46.8143 54.1078 45.0825 53.4391 43.3348C53.2739 42.9038 53.1711 42.4223 53.1711 41.9621C53.1521 36.7987 53.1602 31.6379 53.1602 26.4744C53.1602 26.1738 53.1602 25.8732 53.1602 25.5407H17.8851C17.8851 25.8333 17.8851 26.0887 17.8851 26.3414C17.8851 36.7854 17.8851 47.2267 17.8851 57.6706C17.8851 57.8835 17.9609 58.1575 17.8553 58.2958C17.6631 58.5485 17.3761 58.8598 17.1027 58.8864C16.8969 58.9076 16.5964 58.5538 16.4393 58.3064C16.3256 58.1282 16.3825 57.8462 16.3608 57.6095C15.971 53.0658 11.5416 49.98 7.05539 51.1265C3.41931 52.055 1.09633 55.4893 1.56201 59.2375C1.98978 62.6692 5.19268 65.505 8.69338 65.5076C26.7195 65.5183 44.7482 65.5156 62.7743 65.5183C63.0044 65.5183 63.2319 65.4996 63.4539 65.489V25.5407H60.0885H60.0912ZM1.50786 53.0552C3.51136 50.7408 5.93451 49.4453 8.97496 49.4506C12.0262 49.4559 14.4413 50.794 16.4041 53.3132C16.4041 52.8823 16.4041 52.6748 16.4041 52.4673C16.4041 43.3986 16.4041 34.33 16.4069 25.2613C16.4069 22.4442 16.4312 19.627 16.3987 16.8099C16.3473 12.362 12.5813 8.9782 8.24395 9.44906C4.25861 9.88267 1.51598 12.9073 1.51328 16.9216C1.50515 28.7116 1.50786 40.5043 1.50786 52.2944C1.50786 52.5471 1.50786 52.8025 1.50786 53.0552ZM54.6574 7.74653V41.329C55.0608 41.3822 55.4318 41.4301 55.8325 41.4833V7.74653H54.6574ZM57.419 7.73855V41.5125C57.8332 41.446 58.1825 41.3902 58.5318 41.3343V7.73855H57.419ZM54.6737 3.28004H58.594C58.594 2.89165 58.5724 2.5405 58.5995 2.19467C58.6401 1.63869 58.3829 1.42055 57.8332 1.44183C57.3053 1.46311 56.7746 1.44715 56.244 1.44715C55.0834 1.44715 54.56 2.05811 54.6737 3.28004ZM58.5534 4.82828H54.671V6.20893H58.5534V4.82828ZM58.3964 42.8373C57.7006 43.0821 57.1591 43.4252 56.6149 43.4226C56.0599 43.4226 55.5076 43.0794 54.8307 42.8427C55.0717 43.4545 55.2666 43.9466 55.4318 44.3723H57.7845C57.9551 43.9413 58.1527 43.4492 58.3937 42.8373H58.3964ZM57.2078 45.8247H56.0057C56.2223 46.3328 56.3929 46.7345 56.6284 47.2879C56.8505 46.7292 57.0048 46.3408 57.2078 45.8247Z" fill="#3E3B3B"/>
<path d="M26.3081 52.5551C26.2512 52.3396 26.2458 52.3184 26.2404 52.2944C25.8532 51.0095 25.263 50.0971 23.6088 50.3897C22.9048 50.5147 22.2821 49.7513 22.2578 48.9984C22.2253 47.8625 22.2226 46.7266 22.2442 45.5907C22.2632 44.7181 22.9157 43.9759 23.8227 44.101C25.2143 44.2925 25.7774 43.6354 26.04 42.4889C26.0915 42.2654 25.9669 42.0047 25.9182 41.76C25.9155 41.7414 25.8857 41.7281 25.8668 41.7121C24.0772 40.2064 24.3533 39.2993 25.8749 37.9559C26.3758 37.5143 26.8225 37.0115 27.3071 36.5513C28.095 35.7985 28.9343 35.7825 29.7384 36.4875C30.9838 37.5835 30.9865 37.5888 32.5108 36.812C32.657 36.7375 32.7897 36.5141 32.8086 36.3465C32.8519 35.974 32.8086 35.591 32.8222 35.2106C32.8519 34.2396 33.4557 33.5825 34.4304 33.5506C35.5377 33.5133 36.6478 33.5107 37.7551 33.5426C38.6702 33.5665 39.3714 34.2023 39.2875 35.0829C39.1738 36.2667 39.5149 36.953 40.7522 37.2589C41.2423 37.3786 41.5265 37.4026 41.8433 37.0222C42.0707 36.7482 42.3361 36.4981 42.6149 36.2746C43.2322 35.7798 44.0878 35.7665 44.6672 36.2933C45.5146 37.0647 46.3349 37.8681 47.1309 38.6928C47.7347 39.3206 47.7157 40.1612 47.1445 40.8156C46.9576 41.0311 46.7573 41.2413 46.538 41.4221C46.3349 41.5897 46.094 41.7148 45.918 41.8292C46.1617 42.3639 46.3864 42.6937 46.4595 43.0529C46.6301 43.8855 47.139 44.0158 47.9134 43.9759C49.4918 43.8935 50.0252 44.4548 50.0279 46.0296C50.0279 46.9048 50.0495 47.7827 50.036 48.6579C50.0198 49.7114 49.4431 50.4163 48.4034 50.3019C47.0984 50.1583 46.5597 50.7329 46.2402 51.8315C46.1373 52.188 46.0967 52.4035 46.3837 52.6961C48.1029 54.4492 48.0921 54.779 46.3647 56.4869C45.872 56.9737 45.39 57.4712 44.8811 57.942C44.2015 58.5725 43.1781 58.6736 42.6312 57.9713C41.8027 56.9072 40.9661 56.8966 39.8967 57.5111C39.5907 57.6867 39.3958 57.8117 39.4364 58.1815C39.4662 58.4634 39.4445 58.7481 39.4418 59.0327C39.4337 60.2298 38.8489 60.8363 37.6468 60.8656C36.6586 60.8895 35.6704 60.9002 34.6822 60.8842C33.6587 60.8683 32.8546 60.2564 32.9846 59.3573C33.1822 57.9846 32.5568 57.3701 31.3331 57.12C31.1056 57.0748 30.797 57.12 30.6102 57.2451C30.2988 57.4579 30.066 57.7771 29.7817 58.0325C29.0751 58.6656 28.2087 58.6842 27.5102 58.0431C26.7196 57.3169 25.9507 56.5641 25.198 55.7952C24.513 55.0956 24.5185 54.2284 25.2061 53.5128C25.5527 53.1537 25.9588 52.8504 26.3027 52.5498L26.3081 52.5551ZM26.0292 39.9138C26.5355 40.3793 26.9795 40.813 27.4506 41.212C27.9271 41.6163 27.9786 42.0234 27.6834 42.5847C27.3207 43.2736 27.0147 43.9999 26.7846 44.7421C26.6113 45.2981 26.3135 45.5162 25.7503 45.5029C25.0816 45.4869 24.4129 45.5002 23.7577 45.5002V49.0064C24.4779 49.0064 25.1276 49.0277 25.7747 49.0011C26.3541 48.9771 26.633 49.2378 26.8144 49.7646C27.0689 50.4988 27.3748 51.2223 27.7322 51.914C27.9975 52.4301 28.0219 52.8398 27.5562 53.2388C27.0553 53.6671 26.568 54.114 26.216 54.4279C27.1365 55.3776 27.9271 56.1916 28.7637 57.0562C29.1915 56.6173 29.649 56.1624 30.0876 55.6915C30.464 55.2845 30.8349 55.2206 31.3628 55.4813C32.1101 55.8511 32.9034 56.1358 33.6939 56.4124C34.165 56.5774 34.4141 56.8274 34.3979 57.3408C34.3762 58.0165 34.3925 58.6922 34.3925 59.3706H37.9852C37.9852 58.6443 37.9988 57.9873 37.9798 57.3275C37.9663 56.8274 38.1774 56.5614 38.6648 56.3911C39.4554 56.1171 40.2378 55.8032 40.9878 55.4361C41.5049 55.1834 41.8812 55.226 42.2684 55.6356C42.7232 56.1118 43.2106 56.5561 43.5192 56.854C44.4316 56.0293 45.2709 55.2712 46.1644 54.4651C45.6743 54.0049 45.1951 53.5394 44.7051 53.0898C44.3287 52.7467 44.3179 52.3902 44.5345 51.9433C44.8919 51.1984 45.2357 50.4376 45.4956 49.6555C45.677 49.1075 45.9803 48.884 46.5407 48.8947C47.204 48.908 47.8673 48.8973 48.5252 48.8973V45.4178C47.7997 45.4178 47.1282 45.4151 46.4568 45.4178C45.9667 45.4204 45.6716 45.2289 45.4983 44.7421C45.2114 43.944 44.8648 43.1619 44.4966 42.3931C44.2827 41.9462 44.2773 41.5844 44.659 41.2466C45.1762 40.7917 45.6933 40.3368 46.1075 39.9723C45.187 39.0093 44.3991 38.19 43.549 37.3015C43.0617 37.8096 42.5824 38.3044 42.1059 38.8018C41.781 39.1423 41.4318 39.1663 40.9986 38.9748C40.1891 38.6183 39.3687 38.2831 38.5348 37.9852C38.0881 37.8229 37.8607 37.5755 37.8715 37.102C37.885 36.5566 37.858 36.0113 37.8742 35.4686C37.885 35.1068 37.747 34.9525 37.3706 34.9632C36.5043 34.9818 35.6352 34.9924 34.7688 34.9844C34.387 34.9844 34.2679 35.1494 34.2842 35.5058C34.3085 36.0246 34.2815 36.5486 34.3004 37.0674C34.3221 37.6047 34.0594 37.8708 33.5559 38.0437C32.787 38.3097 32.0208 38.6023 31.3006 38.9694C30.7862 39.2301 30.3963 39.2248 30.0227 38.7965C29.5868 38.2937 29.1563 37.791 28.761 37.3307C27.7674 38.2698 26.9551 39.0386 26.0292 39.9165V39.9138Z" fill="#3E3B3B"/>
<path d="M36.1632 40.0201C40.2189 40.036 43.4814 43.2389 43.4733 47.2C43.4679 51.2355 40.1675 54.4304 36.0387 54.4012C32.0208 54.3719 28.753 51.1025 28.7936 47.1494C28.8315 43.1777 32.1129 40.0041 36.1632 40.0201ZM30.2827 47.1893C30.2773 50.355 32.8818 52.954 36.082 52.9779C39.3174 53.0019 41.9761 50.4241 42.0058 47.2292C42.0356 44.0663 39.3742 41.4539 36.1226 41.4539C32.9089 41.4539 30.2908 44.0264 30.2827 47.192V47.1893Z" fill="#3E3B3B"/>
</g>
<defs>
<clipPath id="clip0_69_402">
<rect width="65" height="67" fill="white"/>
</clipPath>
</defs>
</svg>
