<svg width="67" height="63" viewBox="0 0 67 63" fill="none" xmlns="http://www.w3.org/2000/svg">
<g filter="url(#filter0_d_31_866)">
<rect x="1" y="1" width="64.2003" height="60.73" rx="4" fill="#F0EAFF"/>
<rect x="1.25" y="1.25" width="63.7003" height="60.23" rx="3.75"  stroke-width="0.5"/>
</g>
<path d="M37.7864 31.1152C37.2538 30.7732 36.6757 30.5078 36.0692 30.327C35.697 30.214 35.285 30.1037 34.8597 29.9987C34.4875 29.895 34.0463 29.7887 33.5013 29.6691C32.851 29.5327 32.2127 29.3443 31.5927 29.1055C31.2731 28.9814 30.9911 28.7767 30.7739 28.5114C30.615 28.2943 30.5396 28.0273 30.5613 27.7591C30.5608 27.4716 30.6567 27.1922 30.8338 26.9656C31.0815 26.6754 31.4029 26.4573 31.7641 26.3343C32.3717 26.1255 33.012 26.0282 33.6542 26.0472C34.1511 26.0389 34.6464 26.1043 35.1242 26.2412C35.441 26.3304 35.7394 26.4753 36.0054 26.6692C36.1774 26.792 36.3241 26.9468 36.4374 27.1251C36.5194 27.28 36.6313 27.4171 36.7666 27.5286C36.9019 27.6401 37.0579 27.7237 37.2256 27.7746C37.3933 27.8255 37.5694 27.8428 37.7438 27.8254C37.9183 27.808 38.0875 27.7562 38.2419 27.6732C38.3962 27.5901 38.5326 27.4773 38.6431 27.3413C38.7537 27.2053 38.8363 27.0487 38.8861 26.8807C38.936 26.7126 38.9521 26.5364 38.9335 26.3621C38.9149 26.1878 38.8621 26.0189 38.778 25.8651C38.4977 25.3693 38.1191 24.9361 37.6655 24.5918C37.1414 24.1891 36.5469 23.8876 35.9124 23.7026C35.1799 23.4862 34.4192 23.3805 33.6555 23.3889C32.6847 23.368 31.7183 23.5257 30.8045 23.8541C29.9781 24.155 29.2521 24.6807 28.7085 25.372C28.1878 26.0594 27.9059 26.8981 27.9057 27.7604C27.8841 28.619 28.1561 29.4592 28.6766 30.1422C29.1791 30.7751 29.8378 31.2662 30.5879 31.5671C31.1546 31.7851 31.7349 31.9663 32.325 32.1093C32.3357 32.1133 32.3436 32.1226 32.3543 32.1253C32.6095 32.2024 33.0162 32.3047 33.6037 32.431C33.8336 32.4815 34.0489 32.536 34.2642 32.5905C34.2855 32.5958 34.3161 32.6024 34.336 32.6091L34.3599 32.6118C34.6896 32.6968 35.0072 32.7832 35.2983 32.8723C35.6559 32.9769 35.9972 33.1308 36.3124 33.3295C36.509 33.4529 36.6741 33.6204 36.7949 33.8186C36.9118 34.0605 36.9657 34.3279 36.9517 34.5961C36.9701 34.9433 36.8698 35.2865 36.6673 35.5691C36.3938 35.925 36.0238 36.1949 35.6013 36.3466C34.9717 36.5896 34.2995 36.7035 33.6249 36.6815C32.8448 36.7115 32.0688 36.5548 31.3614 36.2243C31.0347 36.0503 30.7541 35.8011 30.5427 35.4973C30.3943 35.3029 30.3015 35.0718 30.2742 34.8287C30.2742 34.4762 30.1342 34.1382 29.8849 33.8889C29.6356 33.6396 29.2976 33.4996 28.9451 33.4996C28.5926 33.4996 28.2545 33.6396 28.0052 33.8889C27.756 34.1382 27.6159 34.4762 27.6159 34.8287C27.6378 35.613 27.8953 36.3726 28.3549 37.0085C28.8142 37.67 29.426 38.2111 30.1386 38.5862C31.2228 39.1152 32.419 39.3738 33.6249 39.3398C34.6497 39.3646 35.6688 39.1815 36.6208 38.8015C37.5057 38.4619 38.2741 37.8745 38.8338 37.1095C39.3659 36.3642 39.6385 35.4649 39.61 34.5496C39.6223 33.8401 39.4506 33.1395 39.1116 32.5161C38.7841 31.9533 38.3305 31.4742 37.7864 31.1165V31.1152ZM47.3841 33.6113C47.7424 31.4269 47.5756 29.1887 46.8974 27.0816C46.2192 24.9746 45.0491 23.0592 43.4839 21.494C41.9188 19.9289 40.0034 18.7588 37.8964 18.0806C35.7893 17.4024 33.5511 17.2356 31.3667 17.5939C29.754 16.8206 27.941 16.5671 26.178 16.8682C24.4149 17.1693 22.7889 18.0102 21.5242 19.2749C20.2595 20.5396 19.4185 22.1657 19.1174 23.9287C18.8163 25.6917 19.0699 27.5047 19.8432 29.1175C19.4851 31.3016 19.6521 33.5395 20.3304 35.6463C21.0086 37.753 22.1786 39.6681 23.7436 41.2331C25.3086 42.7981 27.2236 43.9681 29.3304 44.6463C31.4372 45.3245 33.6751 45.4915 35.8592 45.1335C37.4719 45.9067 39.285 46.1603 41.048 45.8592C42.811 45.5581 44.4371 44.7172 45.7018 43.4525C46.9665 42.1878 47.8074 40.5617 48.1085 38.7987C48.4096 37.0357 48.156 35.2227 47.3828 33.6099L47.3841 33.6113ZM39.5941 43.3259C38.5855 43.3254 37.5935 43.0703 36.7098 42.5842C36.4357 42.4332 36.1172 42.3833 35.81 42.4433C34.172 42.77 32.4818 42.7291 30.8615 42.3235C29.2411 41.9179 27.731 41.1577 26.4401 40.0978C25.1491 39.0379 24.1095 37.7046 23.3962 36.1943C22.6829 34.6839 22.3138 33.034 22.3154 31.3637C22.3167 30.6256 22.3897 29.8893 22.5333 29.1653C22.5935 28.8581 22.5436 28.5396 22.3925 28.2655C21.7684 27.1304 21.5296 25.8234 21.7122 24.541C21.8947 23.2586 22.4886 22.0701 23.4047 21.1542C24.3207 20.2384 25.5093 19.6446 26.7917 19.4623C28.0741 19.28 29.3811 19.5189 30.5161 20.1432C30.7905 20.295 31.1096 20.3449 31.4172 20.2841C33.0552 19.9576 34.7452 19.9987 36.3654 20.4044C37.9855 20.8101 39.4955 21.5703 40.7863 22.6302C42.0771 23.6901 43.1166 25.0233 43.8298 26.5335C44.543 28.0438 44.9121 29.6935 44.9106 31.3637C44.9092 32.1018 44.8362 32.8381 44.6926 33.5621C44.6325 33.8693 44.6823 34.1878 44.8335 34.4619C45.3349 35.3725 45.5902 36.398 45.5743 37.4374C45.5585 38.4768 45.2719 39.494 44.743 40.3889C44.2141 41.2837 43.461 42.0253 42.5581 42.5403C41.6551 43.0553 40.6335 43.3261 39.5941 43.3259Z" fill="#3E3B3B"/>
<defs>
<filter id="filter0_d_31_866" x="0" y="0" width="66.2002" height="62.73" filterUnits="userSpaceOnUse" color-interpolation-filters="sRGB">
<feFlood flood-opacity="0" result="BackgroundImageFix"/>
<feColorMatrix in="SourceAlpha" type="matrix" values="0 0 0 0 0 0 0 0 0 0 0 0 0 0 0 0 0 0 127 0" result="hardAlpha"/>
<feOffset/>
<feGaussianBlur stdDeviation="0.5"/>
<feComposite in2="hardAlpha" operator="out"/>
<feColorMatrix type="matrix" values="0 0 0 0 0 0 0 0 0 0 0 0 0 0 0 0 0 0 0.25 0"/>
<feBlend mode="normal" in2="BackgroundImageFix" result="effect1_dropShadow_31_866"/>
<feBlend mode="normal" in="SourceGraphic" in2="effect1_dropShadow_31_866" result="shape"/>
</filter>
<linearGradient id="paint0_linear_31_866" x1="59.9948" y1="0.999999" x2="32.2326" y2="36.5704" gradientUnits="userSpaceOnUse">
<stop stop-color="#0675EB"/>
<stop offset="1" stop-color="white" stop-opacity="0"/>
</linearGradient>
</defs>
</svg>
