<svg width="65" height="65" viewBox="0 0 65 65" fill="none" xmlns="http://www.w3.org/2000/svg">
<g clip-path="url(#clip0_69_376)">
<path d="M8.28857e-05 32.4574C8.28857e-05 22.165 8.28857e-05 11.8726 8.28857e-05 1.58178C8.28857e-05 0.253828 0.252363 0 1.56484 0C22.176 0 42.7855 0 63.3951 0C64.754 0 64.9985 0.249185 64.9985 1.62666C64.9985 22.2115 64.9985 42.7947 64.9985 63.3795C64.9985 64.7539 64.754 65.0015 63.3904 65.0015C42.7809 65.0015 22.1713 65.0015 1.56019 65.0015C0.253911 65.0015 -0.00146484 64.7415 -0.00146484 63.412C8.28857e-05 53.0933 8.28857e-05 42.7746 8.28857e-05 32.4574ZM62.9122 62.9508V2.0817H2.07249V62.9508H62.9122Z" fill="#3E3B3B"/>
<path d="M32.5055 24.1058C34.7481 24.1058 36.9923 24.1027 39.235 24.1058C40.2952 24.1089 40.5691 24.3766 40.5691 25.4291C40.5738 29.8107 40.5738 34.1923 40.5691 38.5724C40.5691 39.5769 40.2364 39.905 39.2195 39.9066C34.7326 39.9112 30.2473 39.9112 25.7605 39.9066C24.7544 39.9066 24.4279 39.5738 24.4279 38.5585C24.4248 34.1769 24.4248 29.7968 24.4279 25.4152C24.4279 24.3766 24.7034 24.1104 25.7744 24.1073C28.017 24.1011 30.2613 24.1058 32.5039 24.1042L32.5055 24.1058ZM38.5045 37.8388V26.1844H26.5127V37.8388H38.5045Z" fill="#3E3B3B"/>
<path d="M51.7082 24.1058C53.9509 24.1058 56.1935 24.1027 58.4362 24.1074C59.4995 24.1105 59.7719 24.3782 59.7734 25.4276C59.7765 29.8092 59.7781 34.1924 59.7734 38.574C59.7734 39.5831 59.4438 39.9066 58.4269 39.9066C53.9416 39.9112 49.4563 39.9112 44.971 39.9066C43.9696 39.9066 43.6306 39.5645 43.6306 38.5616C43.6275 34.18 43.626 29.7968 43.6306 25.4152C43.6306 24.3844 43.92 24.1074 44.9818 24.1058C47.2244 24.1012 49.4671 24.1058 51.7098 24.1058H51.7082ZM45.6876 37.8234H57.7088V26.1782H45.6876V37.8234Z" fill="#3E3B3B"/>
<path d="M13.3893 24.1059C15.6056 24.1059 17.8235 24.1013 20.0399 24.1075C21.0939 24.1106 21.3663 24.3845 21.3663 25.437C21.3694 29.8186 21.3694 34.2002 21.3663 38.5818C21.3663 39.5461 21.0273 39.9036 20.0817 39.9051C15.5453 39.9113 11.0073 39.9113 6.47095 39.9051C5.56552 39.9051 5.22348 39.5538 5.22193 38.6298C5.21574 34.1956 5.21574 29.7613 5.22193 25.3286C5.22193 24.4294 5.53457 24.1152 6.42761 24.1106C8.74766 24.0997 11.0677 24.1075 13.3877 24.1075L13.3893 24.1059ZM19.3001 37.8405V26.1861H7.31291V37.8405H19.3001Z" fill="#3E3B3B"/>
<path d="M32.4914 4.48682C40.5598 4.48682 48.6281 4.48682 56.6964 4.48682C56.9533 4.48682 57.2892 4.3986 57.4532 4.52706C57.786 4.78708 58.1992 5.13532 58.2642 5.50368C58.3556 6.00978 57.9764 6.41838 57.4037 6.49732C57.1762 6.52827 56.9409 6.51125 56.7088 6.51125C40.5721 6.51125 24.4355 6.51125 8.29733 6.51125C7.21392 6.51125 6.69233 6.18622 6.68924 5.50832C6.6846 4.83041 7.22011 4.48837 8.28495 4.48837C16.3533 4.48837 24.4216 4.48837 32.4899 4.48837L32.4914 4.48682Z" fill="#3E3B3B"/>
<path d="M32.5131 9.7398C38.3636 9.7398 44.214 9.7398 50.0644 9.7398C50.2966 9.7398 50.5318 9.71968 50.7593 9.75218C51.3258 9.82957 51.6524 10.1979 51.6555 10.7412C51.6586 11.2875 51.3258 11.6528 50.7686 11.7457C50.5426 11.7828 50.3058 11.7611 50.0737 11.7611C38.3465 11.7611 26.6209 11.7611 14.8938 11.7611C14.6616 11.7611 14.4233 11.7874 14.2004 11.741C13.6525 11.6296 13.3228 11.2643 13.3445 10.7118C13.3662 10.167 13.6943 9.811 14.2654 9.74754C14.4697 9.72587 14.6771 9.7398 14.883 9.7398C20.7597 9.7398 26.6349 9.7398 32.5116 9.7398H32.5131Z" fill="#3E3B3B"/>
<path d="M13.2748 21.659C11.0585 21.659 8.84365 21.6606 6.6273 21.659C5.51758 21.659 5.22506 21.3619 5.22042 20.2351C5.21578 18.9722 5.21113 17.7108 5.22197 16.4478C5.2297 15.578 5.57175 15.2065 6.43074 15.2034C11.0167 15.1926 15.6026 15.1926 20.1885 15.2034C20.9949 15.205 21.357 15.5997 21.3632 16.4029C21.3741 17.717 21.371 19.031 21.3663 20.345C21.3632 21.3263 21.0196 21.6544 19.9997 21.6559C17.7586 21.659 15.5159 21.6559 13.2748 21.6559V21.659ZM7.28199 19.5665H19.3171V17.313H7.28199V19.5665Z" fill="#3E3B3B"/>
<path d="M51.6338 21.659C49.4438 21.659 47.2538 21.6606 45.0637 21.659C43.9478 21.659 43.629 21.3479 43.6259 20.2599C43.6228 18.9722 43.6166 17.6829 43.629 16.3952C43.6367 15.595 44.0051 15.205 44.8145 15.2034C49.4005 15.1926 53.9864 15.1926 58.5723 15.2034C59.4236 15.205 59.7656 15.5842 59.7718 16.4556C59.7811 17.7696 59.7811 19.0836 59.7718 20.3976C59.7656 21.3139 59.4282 21.6544 58.5135 21.6575C56.2213 21.6652 53.9276 21.6606 51.6354 21.6606L51.6338 21.659ZM45.6813 19.5773H57.6948V17.3006H45.6813V19.5773Z" fill="#3E3B3B"/>
<path d="M32.5564 21.659C30.3153 21.659 28.0742 21.6606 25.8331 21.659C24.728 21.659 24.4309 21.3557 24.4278 20.232C24.4247 18.9691 24.42 17.7077 24.4309 16.4447C24.4386 15.5811 24.7853 15.205 25.6396 15.2034C30.1992 15.1926 34.7589 15.1926 39.32 15.2034C40.2239 15.205 40.5644 15.5718 40.5706 16.4834C40.5799 17.7464 40.5768 19.0078 40.5706 20.2707C40.5675 21.3417 40.2579 21.6575 39.2039 21.659C36.9891 21.6621 34.7728 21.659 32.558 21.659H32.5564ZM26.4816 19.5711H38.492V17.3084H26.4816V19.5711Z" fill="#3E3B3B"/>
<path d="M32.5023 59.7022C30.3123 59.7022 28.1238 59.7069 25.9337 59.6976C25.6304 59.6976 25.2404 59.727 25.0438 59.5614C24.7667 59.3277 24.4618 58.9129 24.4835 58.5972C24.5052 58.2845 24.8782 57.9471 25.1753 57.7227C25.3471 57.5927 25.6722 57.6484 25.9275 57.6469C30.3324 57.6438 34.7372 57.6438 39.1421 57.6469C39.3479 57.6469 39.6157 57.5911 39.7441 57.6979C40.0521 57.9518 40.4282 58.2458 40.5335 58.5972C40.6821 59.094 40.3446 59.484 39.8323 59.6248C39.5894 59.6914 39.3247 59.7007 39.0709 59.7007C36.8808 59.7069 34.6923 59.7038 32.5023 59.7038V59.7022Z" fill="#3E3B3B"/>
<path d="M32.4668 45.2061C30.2242 45.2061 27.9831 45.2077 25.7404 45.2061C24.8381 45.2061 24.4124 44.8625 24.4326 44.1722C24.4511 43.5129 24.8644 43.1879 25.7265 43.1879C30.2366 43.1848 34.7466 43.1848 39.2567 43.1879C40.1544 43.1879 40.58 43.5377 40.5646 44.2357C40.5491 44.8997 40.1529 45.2046 39.2722 45.2061C37.0048 45.2092 34.7358 45.2061 32.4684 45.2077L32.4668 45.2061Z" fill="#3E3B3B"/>
<path d="M51.6153 45.2044C49.3726 45.2044 47.13 45.2075 44.8889 45.2029C44.0469 45.2013 43.6275 44.8531 43.6321 44.1907C43.6383 43.5391 44.0732 43.1877 44.9105 43.1877C49.4469 43.1846 53.9833 43.1831 58.5182 43.1877C59.3524 43.1877 59.7749 43.5468 59.7672 44.2139C59.7595 44.8794 59.354 45.2029 58.495 45.2044C56.2012 45.2091 53.9075 45.2044 51.6138 45.2044H51.6153Z" fill="#3E3B3B"/>
<path d="M32.4961 50.0211C30.2286 50.0211 27.9597 50.0242 25.6922 50.0195C24.8286 50.018 24.4293 49.6914 24.4324 49.0197C24.4355 48.3619 24.8689 47.9982 25.6969 47.9966C30.2333 47.992 34.7681 47.992 39.3045 47.9966C40.1326 47.9966 40.5613 48.365 40.5628 49.0243C40.5628 49.6992 40.1743 50.0164 39.2999 50.018C37.0325 50.0226 34.7635 50.0195 32.4961 50.0195V50.0211Z" fill="#3E3B3B"/>
<path d="M51.6461 50.0195C49.4034 50.0195 47.1623 50.0226 44.9197 50.0195C44.0452 50.018 43.6428 49.7053 43.6335 49.0445C43.6227 48.365 44.0715 47.9966 44.9553 47.9966C49.4653 47.992 53.9754 47.992 58.484 47.9966C59.3244 47.9966 59.75 48.3433 59.7639 49.0011C59.7794 49.6976 59.3708 50.0211 58.4484 50.0211C56.1809 50.0242 53.9135 50.0211 51.6445 50.0211L51.6461 50.0195Z" fill="#3E3B3B"/>
<path d="M13.3879 43.1863C15.6043 43.1863 17.8206 43.1847 20.037 43.1863C20.93 43.1863 21.3726 43.5376 21.3634 44.2202C21.3525 44.8872 20.9517 45.203 20.0787 45.203C15.5687 45.2061 11.0586 45.2061 6.54849 45.203C5.64152 45.203 5.21125 44.864 5.22518 44.1815C5.23756 43.5051 5.66783 43.1847 6.58409 43.1847C8.85151 43.1816 11.1189 43.1847 13.3879 43.1847V43.1863Z" fill="#3E3B3B"/>
<path d="M13.2269 54.8625C11.088 54.8625 8.95056 54.8625 6.8116 54.8609C6.55468 54.8609 6.2312 54.9306 6.05476 54.8052C5.73438 54.5777 5.36602 54.2666 5.26078 53.9184C5.11374 53.4277 5.43257 53.0191 5.95261 52.8845C6.22037 52.8148 6.51289 52.8133 6.79303 52.8133C11.1468 52.8086 15.5006 52.8086 19.8543 52.8133C20.1097 52.8133 20.4517 52.7576 20.6019 52.8938C20.9099 53.1739 21.2612 53.5407 21.3293 53.9199C21.4206 54.4307 21.012 54.7572 20.4889 54.8315C20.2351 54.8671 19.975 54.864 19.7181 54.864C17.5544 54.8656 15.3907 54.864 13.2254 54.864L13.2269 54.8625Z" fill="#3E3B3B"/>
<path d="M11.9192 57.6453C13.6712 57.6453 15.4232 57.636 17.1737 57.6483C18.025 57.6545 18.449 58.0028 18.4614 58.6451C18.4754 59.3199 18.0203 59.6975 17.1397 59.6991C13.6108 59.7053 10.0805 59.7053 6.55164 59.6991C5.66944 59.6975 5.21595 59.323 5.22524 58.6482C5.23452 57.9796 5.66634 57.6483 6.58569 57.6453C8.36249 57.6375 10.1408 57.6437 11.9176 57.6437L11.9192 57.6453Z" fill="#3E3B3B"/>
<path d="M50.6154 54.8623C48.8107 54.8623 47.006 54.8623 45.2014 54.8623C44.9692 54.8623 44.7355 54.8623 44.508 54.8298C43.9818 54.754 43.5763 54.429 43.6707 53.9182C43.7403 53.539 44.0901 53.1722 44.3981 52.8936C44.5483 52.7574 44.8903 52.8147 45.1457 52.8147C48.8076 52.81 52.468 52.8116 56.1299 52.8131C56.311 52.8131 56.4921 52.8008 56.6701 52.824C57.2969 52.9029 57.6838 53.2635 57.6606 53.8935C57.6389 54.4847 57.252 54.8205 56.6484 54.853C56.2878 54.8716 55.9272 54.8639 55.5665 54.8654C53.9167 54.8654 52.2668 54.8654 50.6154 54.8654V54.8623Z" fill="#3E3B3B"/>
<path d="M11.7812 50.0212C10.0029 50.0212 8.22606 50.0258 6.44772 50.0196C5.63671 50.0165 5.24514 49.6946 5.22966 49.0569C5.21418 48.3868 5.63671 47.9998 6.45856 47.9983C10.0648 47.9906 13.6725 47.9906 17.2787 47.9998C18.0387 48.0014 18.4612 48.393 18.4627 49.026C18.4627 49.6559 18.048 50.0165 17.2694 50.0196C15.44 50.0274 13.6106 50.0227 11.7812 50.0212Z" fill="#3E3B3B"/>
<path d="M49.21 57.6453C50.5999 57.6453 51.9897 57.6375 53.3796 57.6484C54.2308 57.6545 54.6456 57.9981 54.6518 58.6559C54.658 59.3153 54.2339 59.6975 53.4043 59.7006C50.5735 59.7115 47.7427 59.7099 44.912 59.7006C44.087 59.6975 43.6428 59.3214 43.632 58.6807C43.6227 58.0291 44.0576 57.6561 44.8872 57.6499C46.3281 57.6375 47.7691 57.6468 49.21 57.6468V57.6453Z" fill="#3E3B3B"/>
<path d="M30.1715 54.8607C28.7043 54.8607 27.2355 54.8669 25.7682 54.8577C24.8566 54.853 24.4233 54.511 24.431 53.8361C24.4387 53.1582 24.8737 52.8146 25.7791 52.8131C28.6888 52.8069 31.6001 52.8054 34.5098 52.8131C35.3719 52.8146 35.8378 53.214 35.813 53.8857C35.7898 54.5141 35.3487 54.853 34.4974 54.8577C33.055 54.8669 31.6125 54.8607 30.1715 54.8607Z" fill="#3E3B3B"/>
</g>
<defs>
<clipPath id="clip0_69_376">
<rect width="65" height="65" fill="white"/>
</clipPath>
</defs>
</svg>
