<svg width="62" height="33" viewBox="0 0 62 33" fill="none" xmlns="http://www.w3.org/2000/svg">
<g clip-path="url(#clip0_69_455)">
<path d="M28.0649 26.3036C29.1522 25.8449 30.0862 25.451 31.004 25.0652C31.6096 25.9204 32.078 26.7488 32.7024 27.4341C34.8476 29.7787 37.7033 29.4279 39.216 26.6435C40.5833 24.1262 40.6694 21.4686 39.6655 18.8434C38.7934 16.5582 36.8232 15.7461 34.5327 15.5734C34.0024 15.5329 33.4695 15.568 32.549 15.568C32.8235 14.5616 32.8962 13.6739 33.2892 12.9617C34.9337 9.98299 36.6751 7.05829 38.6104 3.7127C37.3561 3.7127 36.4141 3.69381 35.4693 3.71539C30.2962 3.82871 31.4347 2.81424 29.8978 7.92977C27.4781 15.9808 25.088 24.0399 22.6844 32.0963C22.636 32.2609 22.5875 32.4228 22.4207 32.9975C20.297 25.9312 18.2837 19.2293 16.2731 12.5273C16.1547 12.5273 16.0336 12.5273 15.9152 12.53C13.9046 19.2239 11.894 25.9178 9.8834 32.6116C9.80265 32.617 9.7219 32.6251 9.63846 32.6305C6.44089 21.8248 3.23794 11.019 0 0.0945947H3.95659C5.89989 6.66977 7.84858 13.2503 9.79457 19.8309C9.89416 19.8363 9.99106 19.8417 10.0906 19.8471C10.3679 19.0188 10.6693 18.1986 10.917 17.3622C11.8698 14.1461 12.8495 10.9381 13.7135 7.70043C13.9288 6.89641 13.9073 5.95209 13.7216 5.13458C13.3474 3.48876 12.7849 1.88341 12.2277 0.024445C13.4524 0.024445 14.5532 -0.0511007 15.6326 0.0703121C15.9475 0.105387 16.3431 0.65849 16.4616 1.04701C18.1895 6.78579 19.8771 12.5354 21.5782 18.2822C21.737 18.8165 21.92 19.3399 22.4126 19.8498C23.1635 17.3001 23.9199 14.7505 24.6681 12.2008C25.7528 8.51255 26.816 4.8162 27.941 1.14144C28.0702 0.717847 28.517 0.0757082 28.8239 0.0730102C33.8409 0.00555861 38.858 0.024445 44.2384 0.024445C43.9531 1.07129 43.8724 2.01292 43.4552 2.77377C41.9048 5.60674 40.2441 8.37495 38.6292 11.1728C38.4327 11.5128 38.2739 11.877 38.0505 12.3249C41.2077 13.4743 43.2076 15.6219 44.0043 18.8245C44.9436 22.6153 44.591 26.2388 42.2951 29.4873C39.2267 33.8258 33.0927 33.8797 29.8843 29.6492C29.5344 29.1878 29.2249 28.686 28.9477 28.176C28.6516 27.631 28.4148 27.0536 28.0702 26.3117L28.0649 26.3036Z" fill="#3E3B3B"/>
<path d="M59.4754 8.32363C58.8671 7.54389 58.3799 6.78034 57.7608 6.14629C55.5295 3.86373 52.7465 4.00403 50.6605 6.42689C49.0806 8.26157 48.4104 10.4848 48.0416 12.797C47.7967 14.3349 47.7779 15.9052 47.646 17.6023C46.5801 15.1443 46.4213 12.6378 46.7551 10.1826C47.035 8.13207 47.8102 6.14359 48.4158 4.14163C48.5557 3.68296 48.8733 3.27016 49.1559 2.86815C51.5137 -0.490941 54.9293 -0.612354 57.5105 2.57136C57.9519 3.11367 58.3288 3.70994 58.8348 4.42223C59.6073 2.91132 60.3098 1.5407 61.0311 0.13501C62.288 2.55247 61.8735 4.71092 59.47 8.31823L59.4754 8.32363Z" fill="#3E3B3B"/>
<path d="M45.6624 24.2906C50.4183 31.8856 57.0934 31.1464 61.5129 23.8022C61.7929 25.3563 62.4657 26.5732 61.486 27.9735C59.5535 30.7363 57.3518 33.116 53.6374 32.5656C52.2244 32.3578 50.7386 31.6131 49.6082 30.7093C47.5814 29.0904 46.4375 26.7782 45.6624 24.2879V24.2906Z" fill="#3E3B3B"/>
</g>
<defs>
<clipPath id="clip0_69_455">
<rect width="62" height="33" fill="white"/>
</clipPath>
</defs>
</svg>
