<svg width="67" height="67" viewBox="0 0 67 67" fill="none" xmlns="http://www.w3.org/2000/svg">
<g clip-path="url(#clip0_69_297)">
<path d="M67 2.97024V60.2245C66.9718 60.2496 66.9295 60.269 66.9189 60.2986C66.1349 62.4086 64.9935 63.1955 62.7108 63.1955C44.1883 63.1955 25.6657 63.1955 7.14314 63.1955C6.00767 63.1955 4.87102 63.2263 3.73672 63.1875C2.11814 63.1317 0.982667 62.3379 0.295035 60.9236C0.215105 60.7582 0.0999123 60.6088 0 60.4526C0 41.2165 0 21.9793 0 2.74213C0.0905088 2.60299 0.198649 2.47183 0.269175 2.32356C0.975614 0.837458 2.15811 0.00715771 3.85426 0.00715771C23.6298 -0.00196647 43.4054 0.00031457 63.181 0.00373614C64.8489 0.00373614 66.2324 0.985726 66.7931 2.52087C66.8495 2.67484 66.9306 2.82197 67 2.97138V2.97024ZM1.53277 8.23717C1.53277 8.50177 1.53277 8.70592 1.53277 8.91122C1.53277 25.6735 1.53277 42.4357 1.53277 59.198C1.53277 60.7936 2.47077 61.6969 4.12109 61.6969C23.7074 61.6969 43.2949 61.6969 62.8813 61.6969C64.5304 61.6969 65.4661 60.7936 65.4661 59.1946C65.4661 42.4129 65.4661 25.6313 65.4661 8.85077C65.4661 8.65004 65.4484 8.45045 65.439 8.23717H1.53277ZM65.4672 6.69974C65.4672 5.7725 65.4684 4.88403 65.4672 3.99557C65.4637 2.39883 64.5292 1.49782 62.8754 1.49782C55.0399 1.49782 47.2033 1.49782 39.3678 1.49782C27.5946 1.49782 15.8202 1.49782 4.04704 1.49782C2.76816 1.49782 1.75258 2.14792 1.61505 3.2816C1.48105 4.39817 1.58567 5.54097 1.58567 6.69974H65.4672Z" fill="#3E3B3B"/>
<path d="M43.0797 66.7638C42.9634 66.8425 42.847 66.9212 42.7306 66.9988C42.7071 66.9657 42.6824 66.9326 42.6589 66.8996C42.7706 66.8288 42.8823 66.757 42.9951 66.6863C43.0233 66.7114 43.0527 66.7376 43.0809 66.7627L43.0797 66.7638Z" fill="#3E3B3B"/>
<path d="M61.9821 27.1718H39.8804V12.5012H61.9821V27.1718ZM60.4505 25.0413V14.6249C57.7188 16.379 55.0682 18.0818 52.3424 19.8336C55.0706 21.5855 57.7306 23.2951 60.4505 25.0413ZM41.4155 25.0424C44.1507 23.2849 46.8119 21.5752 49.5272 19.8302C46.7955 18.0784 44.1355 16.3722 41.4155 14.6283V25.0424ZM58.4805 14.0786C58.4688 14.0443 58.457 14.0113 58.4452 13.9771H43.2327C45.8963 15.689 48.4117 17.3062 50.933 18.9281C53.4661 17.3005 55.9733 15.6901 58.4793 14.0786H58.4805ZM58.5604 25.6651C58.3007 25.4872 58.1514 25.38 57.9974 25.2796C55.797 23.8654 53.5907 22.4591 51.4008 21.0289C51.0623 20.8076 50.8284 20.786 50.4805 21.0141C48.6339 22.2253 46.7684 23.4092 44.9112 24.6044C44.4046 24.9306 43.9027 25.2625 43.288 25.664H58.5604V25.6651Z" fill="#3E3B3B"/>
<path d="M4.83813 27.1672V12.4944H37.4225V27.1661H4.83813V27.1672ZM6.36268 25.6594H35.9414C35.9414 25.4348 35.9414 25.2488 35.9414 25.0641C35.9414 21.5684 35.9273 18.0738 35.9555 14.5781C35.9602 14.0307 35.7769 13.928 35.2585 13.9292C25.842 13.9428 16.4244 13.9394 7.00799 13.9394C6.79994 13.9394 6.59189 13.9394 6.36268 13.9394V25.6606V25.6594Z" fill="#3E3B3B"/>
<path d="M61.2262 48.9592V50.3758H5.62915V48.9592H61.225H61.2262Z" fill="#3E3B3B"/>
<path d="M11.9801 44.1805C8.01302 44.1873 4.81465 41.0874 4.81348 37.2336C4.81348 33.3866 8.00832 30.2809 11.9766 30.273C15.9061 30.265 19.1256 33.3843 19.1527 37.2233C19.1785 41.0349 15.9437 44.1725 11.9801 44.1805ZM11.9895 42.6727C15.0633 42.6704 17.5964 40.2217 17.6046 37.2438C17.6128 34.2488 15.0633 31.7864 11.959 31.7933C8.86404 31.8001 6.3486 34.234 6.3533 37.2176C6.35683 40.2446 8.86756 42.675 11.9895 42.6727Z" fill="#3E3B3B"/>
<path d="M54.8554 44.1782C50.8695 44.1691 47.6805 41.0725 47.6946 37.2256C47.7087 33.325 50.9118 30.2307 54.8965 30.2706C58.866 30.3094 62.0291 33.423 62.0197 37.2814C62.0103 41.0896 58.7919 44.1884 54.8554 44.1782ZM54.8319 42.6727C57.9374 42.6818 60.5069 40.2103 60.4963 37.2233C60.4857 34.2488 57.9574 31.8081 54.873 31.7932C51.7581 31.7796 49.238 34.2146 49.238 37.237C49.238 40.232 51.7393 42.6624 54.8307 42.6715L54.8319 42.6727Z" fill="#3E3B3B"/>
<path d="M33.3449 44.1781C29.3531 44.1222 26.1947 40.9983 26.2452 37.1559C26.2958 33.318 29.5435 30.226 33.4789 30.2682C37.5659 30.3127 40.6197 33.4366 40.5632 37.514C40.5115 41.1762 37.2027 44.2328 33.3461 44.1781H33.3449ZM33.386 42.6726C36.515 42.6749 39.0352 40.2455 39.0305 37.2311C39.0258 34.2909 36.5291 31.8137 33.5612 31.792C30.3087 31.7669 27.7956 34.2418 27.7839 37.2346C27.7721 40.2284 30.3158 42.6714 33.386 42.6726Z" fill="#3E3B3B"/>
<path d="M5.60791 55.2904V53.8955H45.6751V55.2904H5.60791Z" fill="#3E3B3B"/>
<path d="M7.71313 3.4397H9.17773V4.86079H7.71313V3.4397Z" fill="#3E3B3B"/>
<path d="M5.62567 3.46045V4.86101H4.14697V3.46045H5.62567Z" fill="#3E3B3B"/>
<path d="M11.3242 3.42505H12.7571V4.85755H11.3242V3.42505Z" fill="#3E3B3B"/>
</g>
<defs>
<clipPath id="clip0_69_297">
<rect width="67" height="67" fill="white"/>
</clipPath>
</defs>
</svg>
